Coordinates
version=1
nRows=10
nColumns=40
inDegrees=yes

Units are S.I. units (second, meters, Newtons, ...)
Angles are in degrees.

endheader
time	pelvis_tilt	pelvis_list	pelvis_rotation	pelvis_tx	pelvis_ty	pelvis_tz	hip_flexion_r	hip_adduction_r	hip_rotation_r	knee_angle_r	knee_angle_r_beta	ankle_angle_r	subtalar_angle_r	mtp_angle_r	hip_flexion_l	hip_adduction_l	hip_rotation_l	knee_angle_l	knee_angle_l_beta	ankle_angle_l	subtalar_angle_l	mtp_angle_l	lumbar_extension	lumbar_bending	lumbar_rotation	arm_flex_r	arm_add_r	arm_rot_r	elbow_flex_r	pro_sup_r	wrist_flex_r	wrist_dev_r	arm_flex_l	arm_add_l	arm_rot_l	elbow_flex_l	pro_sup_l	wrist_flex_l	wrist_dev_l
     41.45714286	     -3.44805997	     -5.08826860	      2.88493675	      0.96902295	      0.93293596	      0.48893215	      6.85229088	      5.47301484	    -14.10401087	     12.15593237	     12.15593237	     11.15783726	      0.99039951	     -3.49287138	     34.50539747	    -10.50654133	      3.63838899	     43.16804559	     43.16804559	      6.38716092	    -16.02011049	      8.37499760	     -8.73683606	      5.27846192	      3.45887875	     29.95751764	    -17.09139182	     -7.75977652	     84.09338953	     44.82819471	      0.00000000	      0.00000000	     -1.02449526	     -7.68292933	     -0.24871687	     23.03868890	     45.94931150	      0.00000000	      0.00000000
     41.46928571	     -3.67971280	     -4.98607892	      3.06484746	      0.96778239	      0.93265188	      0.48841914	      6.43546977	      5.38868632	    -14.26145274	     11.71411379	     11.71411379	     11.35033825	      1.25807840	     -3.58755996	     34.38270649	    -10.09730552	      3.55644545	     38.40383942	     38.40383942	      6.83039675	    -14.65332027	      8.35545982	     -8.68513937	      5.21744148	      3.40269282	     31.55019121	    -17.00441446	     -7.88257578	     86.30529989	     44.77410336	      0.00000000	      0.00000000	     -2.00940514	     -7.80968805	     -0.12421873	     22.88827914	     45.89976537	      0.00000000	      0.00000000
     41.48142857	     -3.90989391	     -4.97061945	      3.27373300	      0.96658217	      0.93215548	      0.48775232	      6.03361615	      5.36061377	    -14.65891326	     11.30830785	     11.30830785	     11.54126267	      1.81496208	     -3.84678726	     34.13123648	     -9.76010740	      3.45343769	     33.53043864	     33.53043864	      6.58091437	    -13.19063825	      6.77043536	     -8.72870135	      5.26967670	      3.84839893	     32.37058948	    -17.54046600	     -8.31644644	     90.23705096	     44.70462744	      0.00000000	      0.00000000	     -2.89292930	     -7.96743249	      0.55456893	     23.51819419	     45.72819895	      0.00000000	      0.00000000
     41.49357143	     -4.16312027	     -4.89800779	      3.46967795	      0.96536945	      0.93158063	      0.48701246	      5.72714892	      5.28750170	    -14.73007349	     11.03370577	     11.03370577	     11.76623292	      1.83123439	     -3.93401650	     33.88144288	     -9.35615072	      3.24269206	     28.94807003	     28.94807003	      6.99015150	    -11.32524583	      7.20541323	     -8.61975639	      5.22938855	      3.73619960	     34.01540115	    -17.39911656	     -8.38596082	     91.74443320	     44.67094849	      0.00000000	      0.00000000	     -3.65871389	     -8.06328808	      0.67092774	     23.17535591	     45.69178984	      0.00000000	      0.00000000
     41.50571429	     -4.33888942	     -4.91042002	      3.70012388	      0.96427022	      0.93093705	      0.48616848	      5.33128037	      5.30292797	    -14.89144512	     10.75573863	     10.75573863	     12.03610695	      1.94047317	     -4.05099477	     33.58340677	     -9.03820920	      2.91306362	     24.74823254	     24.74823254	      7.31195275	     -9.37745228	      7.73799817	     -8.60751542	      5.29467677	      3.54663173	     35.55081806	    -17.22380491	     -8.34328586	     93.64794721	     44.62161286	      0.00000000	      0.00000000	     -4.39557443	     -8.14049766	      0.77561392	     22.91670478	     45.65758979	      0.00000000	      0.00000000
     41.51785714	     -4.46672704	     -4.91489567	      3.92848754	      0.96328532	      0.93026293	      0.48521761	      4.88585962	      5.30262139	    -15.06494960	     10.50366915	     10.50366915	     12.32188300	      2.07924678	     -4.16870234	     33.29369128	     -8.71398074	      2.38959358	     21.10776602	     21.10776602	      7.55837606	     -7.58843817	      8.42491795	     -8.65806696	      5.37183158	      3.36731723	     36.90393369	    -17.08290572	     -8.22525695	     95.71530366	     44.56530440	      0.00000000	      0.00000000	     -5.04005513	     -8.21848818	      0.87507165	     22.72136175	     45.62631992	      0.00000000	      0.00000000
     41.53000000	     -4.61084443	     -4.98627242	      4.17211624	      0.96238696	      0.92947761	      0.48410183	      4.47199341	      5.34122061	    -15.39013798	     10.28369361	     10.28369361	     12.59985431	      2.45788979	     -4.24348287	     33.24620590	     -8.43845737	      1.74169144	     18.40358237	     18.40358237	      8.25484475	     -5.91746431	     10.08358707	     -8.72326472	      5.52703837	      3.71469174	     37.60662840	    -17.63999786	     -8.30012390	     99.09245478	     44.50987529	      0.00000000	      0.00000000	     -5.35022528	     -8.31889964	      1.42219157	     22.69507161	     45.52319550	      0.00000000	      0.00000000
     41.54214286	     -4.78453679	     -5.05890070	      4.41298019	      0.96150943	      0.92859209	      0.48294043	      4.14816022	      5.39576550	    -15.47820611	     10.17052060	     10.17052060	     12.91092425	      2.38150932	     -4.30716588	     33.27190908	     -8.12406225	      1.07107938	     16.30977186	     16.30977186	      8.30671286	     -5.04967315	     10.60134737	     -8.63827281	      5.64194768	      3.54510329	     38.93251436	    -17.53565461	     -8.31139636	    100.26429750	     44.48473808	      0.00000000	      0.00000000	     -5.71366516	     -8.33901820	      1.51889502	     22.44330592	     45.50100436	      0.00000000	      0.00000000
     41.55428571	     -4.83303123	     -5.02512250	      4.64052275	      0.96089904	      0.92793279	      0.48167067	      3.63787742	      5.33764678	    -15.58371722	     10.01751466	     10.01751466	     13.26774581	      2.46195095	     -4.28917639	     33.21668915	     -7.74022763	      0.26048175	     15.00921467	     15.00921467	      8.40055089	     -4.55622777	     11.18249018	     -8.70197952	      5.65510840	      3.27067739	     39.91241535	    -17.29391303	     -8.04397065	    102.12800190	     44.43397417	      0.00000000	      0.00000000	     -6.06024961	     -8.43102477	      1.68572705	     22.10240293	     45.46941967	      0.00000000	      0.00000000
     41.56642857	     -4.96157705	     -5.04525803	      4.85065950	      0.96032133	      0.92711813	      0.48031718	      3.25762344	      5.30848490	    -15.74512932	      9.95398595	      9.95398595	     13.65996630	      2.57745437	     -4.16760500	     33.37113442	     -7.41688537	     -0.49234716	     14.54401726	     14.54401726	      8.40046949	     -4.57031384	     11.50467964	     -8.64247201	      5.72201807	      3.20835513	     40.68390045	    -17.36869025	     -7.83728626	    103.90597765	     44.39214023	      0.00000000	      0.00000000	     -6.19356336	     -8.48186149	      1.89565223	     21.84133333	     45.43585373	      0.00000000	      0.00000000
